<?xml version="1.0" encoding="UTF-8"?>
<svg version="1.1" xmlns="http://www.w3.org/2000/svg" width="540" height="540">
<path d="M0 0 C1.216875 0.020625 2.43375 0.04125 3.6875 0.0625 C8.48582534 8.47018512 13.20416603 17.01573689 16.6875 26.0625 C17.27950195 26.00715088 17.87150391 25.95180176 18.48144531 25.89477539 C102.20429669 18.14355572 102.20429669 18.14355572 135.6875 27.0625 C135.93628906 26.25039062 136.18507813 25.43828125 136.44140625 24.6015625 C137.91768109 20.40875685 139.72568579 16.4521972 141.625 12.4375 C141.97240234 11.68726562 142.31980469 10.93703125 142.67773438 10.1640625 C143.64483408 8.1096586 144.65399657 6.08412562 145.6875 4.0625 C146.10128906 3.22976562 146.51507813 2.39703125 146.94140625 1.5390625 C149.29011996 -0.44709809 151.2577234 -0.38869613 154.25585938 -0.23046875 C159.2222209 0.36788806 164.06593206 1.44369464 168.9375 2.5625 C170.1133667 2.82949707 171.2892334 3.09649414 172.50073242 3.37158203 C192.33701829 7.97659848 211.89119544 13.57967202 230.87353516 20.9765625 C232.85918942 21.74284657 234.85181488 22.49118366 236.84912109 23.2265625 C240.12080433 24.43163816 243.37328895 25.67965072 246.625 26.9375 C247.6262793 27.29956543 248.62755859 27.66163086 249.65917969 28.03466797 C257.23507976 31.05909522 260.62277833 35.1132468 264.6875 42.0625 C265.76606696 43.73225513 266.84887071 45.3992877 267.9375 47.0625 C269.19129665 49.06012208 270.44076572 51.06046263 271.6875 53.0625 C272.1004834 53.71782715 272.5134668 54.3731543 272.93896484 55.04833984 C279.10157301 64.83784182 284.73714652 74.69863022 289.74462891 85.12548828 C290.67343585 87.03360694 291.63263502 88.92258816 292.60546875 90.80859375 C306.64401666 118.09032436 316.75008105 146.47069876 324.6875 176.0625 C324.93628906 176.97821777 325.18507813 177.89393555 325.44140625 178.83740234 C331.45511434 201.264238 334.80490755 224.76428224 336.52441406 247.89990234 C336.672074 249.85794379 336.8462188 251.81394354 337.0234375 253.76953125 C338.14610824 267.77257304 337.94678766 281.86302131 337.71954346 295.89923096 C337.68734049 298.07326863 337.6671241 300.24719916 337.64794922 302.42138672 C337.60992833 305.9632051 337.51464257 309.49964283 337.37930298 313.03903198 C337.31415747 315.01229516 337.29550812 316.98692036 337.27807617 318.96118164 C336.85894053 327.66099978 336.85894053 327.66099978 333.63134766 331.52246094 C331.08206477 333.60615477 328.49914366 335.3530868 325.6875 337.0625 C324.35535909 337.98233381 323.02448988 338.904014 321.6953125 339.828125 C320.40547687 340.6631412 319.11106559 341.4911259 317.8125 342.3125 C316.7304126 343.00218872 316.7304126 343.00218872 315.62646484 343.70581055 C313.31942918 345.16775561 311.00467485 346.61668751 308.6875 348.0625 C307.93210937 348.53703613 307.17671875 349.01157227 306.3984375 349.50048828 C276.21534543 368.37131555 244.26354839 382.43935173 210.6875 394.0625 C211.6775 394.7225 212.6675 395.3825 213.6875 396.0625 C212.6875 397.0625 212.6875 397.0625 209.74609375 397.16015625 C207.95365234 397.14275391 207.95365234 397.14275391 206.125 397.125 C204.92746094 397.11597656 203.72992188 397.10695313 202.49609375 397.09765625 C201.56925781 397.08605469 200.64242188 397.07445312 199.6875 397.0625 C199.61144531 396.36253906 199.53539062 395.66257812 199.45703125 394.94140625 C198.49540444 391.34384807 196.60524886 388.89936614 194.375 386 C190.01296676 380.10316238 186.05139768 374.02227701 182.25 367.75 C181.74235107 366.92685303 181.23470215 366.10370605 180.71166992 365.25561523 C177.57778291 360.0286213 175.34720451 354.92819655 173.6875 349.0625 C174.22415283 348.84223145 174.76080566 348.62196289 175.3137207 348.39501953 C185.50279339 344.18698335 195.5472409 339.81385561 205.3125 334.6875 C206.11083252 334.27129395 206.90916504 333.85508789 207.73168945 333.42626953 C211.19065937 331.57772378 213.99677811 329.95836741 216.6875 327.0625 C215.82125 326.6603125 215.82125 326.6603125 214.9375 326.25 C212.6875 325.0625 212.6875 325.0625 210.75 323.375 C208.77803735 321.81756395 208.77803735 321.81756395 206.46484375 322.30859375 C203.20654364 323.19305496 200.27260473 324.43976991 197.1875 325.8125 C173.77862476 336.20429041 148.94287125 342.9586513 123.6875 347.0625 C122.68090332 347.22621094 121.67430664 347.38992188 120.63720703 347.55859375 C75.91371578 354.44241304 27.79297639 350.81440872 -15.18701172 336.75732422 C-17.5999581 335.96852966 -20.02070287 335.20605034 -22.44140625 334.44140625 C-31.63839732 331.49332284 -40.60091606 328.32815113 -49.34008789 324.19580078 C-52.67885129 322.63995047 -54.53223115 322.0625 -58.3125 322.0625 C-58.3125 322.7225 -58.3125 323.3825 -58.3125 324.0625 C-60.27397874 325.45188077 -62.27416576 326.7885411 -64.3125 328.0625 C-50.9762375 336.95334167 -36.08974071 343.02310597 -21.3125 349.0625 C-26.92814879 363.89217448 -36.30467717 377.48732218 -45.52734375 390.28515625 C-47.55060061 393.10673742 -47.55060061 393.10673742 -48.3125 397.0625 C-52.6025 397.0625 -56.8925 397.0625 -61.3125 397.0625 C-61.3125 396.4025 -61.3125 395.7425 -61.3125 395.0625 C-60.6525 394.7325 -59.9925 394.4025 -59.3125 394.0625 C-59.84278809 393.87776123 -60.37307617 393.69302246 -60.91943359 393.50268555 C-76.66101984 387.98323527 -92.04339735 381.77622002 -107.3125 375.0625 C-108.60583252 374.49644043 -108.60583252 374.49644043 -109.92529297 373.91894531 C-123.99657675 367.69855576 -137.15808231 360.01382331 -150.3125 352.0625 C-151.09318848 351.59134766 -151.87387695 351.12019531 -152.67822266 350.63476562 C-178.25951009 335.11548991 -178.25951009 335.11548991 -183.3125 330.0625 C-185.40221217 314.83689799 -185.67487188 299.59386635 -185.625 284.25 C-185.62384186 283.14019775 -185.62268372 282.03039551 -185.62149048 280.88696289 C-185.58357872 262.43900065 -184.7249048 244.36310153 -182.3125 226.0625 C-182.20566895 225.19109375 -182.09883789 224.3196875 -181.98876953 223.421875 C-174.19136519 160.73535338 -149.44782473 98.99118442 -115.015625 46.2890625 C-113.43658787 43.86936389 -112.04816555 41.5429912 -110.734375 38.9609375 C-105.5231517 29.28722988 -94.01717864 26.64598272 -84.3125 23.0625 C-82.81227295 22.49184814 -82.81227295 22.49184814 -81.28173828 21.90966797 C-22.67018315 -0.38424039 -22.67018315 -0.38424039 0 0 Z M-29.3125 170.0625 C-30.31667969 170.64128906 -31.32085937 171.22007812 -32.35546875 171.81640625 C-36.43511193 174.29168519 -36.43511193 174.29168519 -40.3125 177.0625 C-40.3125 177.7225 -40.3125 178.3825 -40.3125 179.0625 C-40.9725 179.0625 -41.6325 179.0625 -42.3125 179.0625 C-53.60140331 191.21214081 -57.09896194 205.56813962 -56.5859375 221.734375 C-55.9650748 233.54615951 -51.43168644 242.23691797 -45.3125 252.0625 C-44.6525 252.0625 -43.9925 252.0625 -43.3125 252.0625 C-42.97412109 252.92875 -42.97412109 252.92875 -42.62890625 253.8125 C-38.68799902 260.54829396 -28.77539385 266.02822208 -21.3125 268.0625 C-6.58568413 270.40146487 5.39099991 267.8027805 17.54296875 258.9921875 C18.25066406 258.35539062 18.95835937 257.71859375 19.6875 257.0625 C19.6875 256.4025 19.6875 255.7425 19.6875 255.0625 C20.3475 255.0625 21.0075 255.0625 21.6875 255.0625 C26.59172273 249.91378523 29.8749538 243.52537212 32.6875 237.0625 C33.00976562 236.3509375 33.33203125 235.639375 33.6640625 234.90625 C37.90322828 223.65463241 37.54274313 207.02923799 32.6875 196.0625 C29.57703286 190.00685624 26.21618088 184.17702666 21.6875 179.0625 C21.0275 179.0625 20.3675 179.0625 19.6875 179.0625 C19.6875 178.4025 19.6875 177.7425 19.6875 177.0625 C16.23186301 174.39522126 12.46536367 172.23998497 8.6875 170.0625 C7.92050781 169.61777344 7.15351563 169.17304688 6.36328125 168.71484375 C-4.25325217 163.5455369 -19.17294764 164.18326376 -29.3125 170.0625 Z M129.6875 181.0625 C128.85605469 181.98095703 128.85605469 181.98095703 128.0078125 182.91796875 C117.68155738 195.08344957 115.72097353 209.61659231 116.6875 225.0625 C118.08253618 236.56834888 123.03063907 246.38367611 130.6875 255.0625 C131.3475 255.0625 132.0075 255.0625 132.6875 255.0625 C132.6875 255.7225 132.6875 256.3825 132.6875 257.0625 C142.37766926 265.43315685 153.84599372 269.97975045 166.6875 269.0625 C179.38647514 267.27741275 189.83978463 261.13339171 198.0234375 251.32421875 C205.69837981 240.89278307 209.26747706 230.07375838 209.125 217.1875 C209.11742676 216.22295898 209.10985352 215.25841797 209.10205078 214.26464844 C208.79450629 200.94370656 203.86231157 188.89265526 194.6875 179.0625 C194.0275 179.0625 193.3675 179.0625 192.6875 179.0625 C192.6875 178.4025 192.6875 177.7425 192.6875 177.0625 C172.9001398 161.29287791 147.09417837 161.36546922 129.6875 181.0625 Z " fill="#FFFFFF" transform="translate(192.3125,71.9375)"/>
</svg>
